{
	"patcher" : 	{
		"fileversion" : 1,
		"appversion" : 		{
			"major" : 5,
			"minor" : 1,
			"revision" : 9
		}
,
		"rect" : [ 0.0, 44.0, 1280.0, 639.0 ],
		"bglocked" : 0,
		"defrect" : [ 0.0, 44.0, 1280.0, 639.0 ],
		"openrect" : [ 0.0, 0.0, 0.0, 0.0 ],
		"openinpresentation" : 1,
		"default_fontsize" : 12.0,
		"default_fontface" : 0,
		"default_fontname" : "Arial",
		"gridonopen" : 0,
		"gridsize" : [ 15.0, 15.0 ],
		"gridsnaponopen" : 0,
		"toolbarvisible" : 1,
		"boxanimatetime" : 200,
		"imprint" : 0,
		"enablehscroll" : 1,
		"enablevscroll" : 1,
		"devicewidth" : 0.0,
		"boxes" : [ 			{
				"box" : 				{
					"maxclass" : "comment",
					"text" : "LFO2 sens",
					"fontname" : "Arial",
					"presentation_rect" : [ 84.0, 780.0, 168.0, 27.0 ],
					"patching_rect" : [ 1243.0, 82.0, 110.0, 27.0 ],
					"presentation" : 1,
					"fontsize" : 18.0,
					"id" : "obj-143",
					"numinlets" : 1,
					"numoutlets" : 0
				}

			}
, 			{
				"box" : 				{
					"maxclass" : "comment",
					"text" : "Mod env sens",
					"linecount" : 2,
					"fontname" : "Arial",
					"presentation_rect" : [ 84.0, 911.0, 168.0, 27.0 ],
					"patching_rect" : [ 965.0, 82.0, 110.0, 48.0 ],
					"presentation" : 1,
					"fontsize" : 18.0,
					"id" : "obj-145",
					"numinlets" : 1,
					"numoutlets" : 0
				}

			}
, 			{
				"box" : 				{
					"maxclass" : "comment",
					"text" : "LFO1 sens",
					"fontname" : "Arial",
					"presentation_rect" : [ 84.0, 647.0, 168.0, 27.0 ],
					"patching_rect" : [ 1107.0, 82.0, 110.0, 27.0 ],
					"presentation" : 1,
					"fontsize" : 18.0,
					"id" : "obj-141",
					"numinlets" : 1,
					"numoutlets" : 0
				}

			}
, 			{
				"box" : 				{
					"maxclass" : "comment",
					"text" : "Filter sens",
					"fontname" : "Arial",
					"presentation_rect" : [ 876.0, 818.0, 215.0, 27.0 ],
					"patching_rect" : [ 778.0, 35.0, 215.0, 27.0 ],
					"presentation" : 1,
					"fontsize" : 18.0,
					"id" : "obj-137",
					"numinlets" : 1,
					"numoutlets" : 0
				}

			}
, 			{
				"box" : 				{
					"maxclass" : "comment",
					"text" : "Oscillators Velocity sens",
					"fontname" : "Arial",
					"presentation_rect" : [ 511.0, 652.0, 235.0, 27.0 ],
					"patching_rect" : [ 511.0, 35.0, 215.0, 27.0 ],
					"presentation" : 1,
					"fontsize" : 18.0,
					"id" : "obj-135",
					"numinlets" : 1,
					"numoutlets" : 0
				}

			}
, 			{
				"box" : 				{
					"maxclass" : "comment",
					"text" : "arprange_sens",
					"fontname" : "Arial",
					"presentation_rect" : [ 387.0, 855.0, 96.0, 20.0 ],
					"patching_rect" : [ 1390.0, 945.0, 96.0, 20.0 ],
					"presentation" : 1,
					"fontsize" : 12.0,
					"id" : "obj-125",
					"numinlets" : 1,
					"numoutlets" : 0
				}

			}
, 			{
				"box" : 				{
					"maxclass" : "number",
					"outlettype" : [ "int", "bang" ],
					"fontname" : "Arial",
					"presentation_rect" : [ 387.0, 833.0, 50.0, 20.0 ],
					"patching_rect" : [ 1390.0, 923.0, 50.0, 20.0 ],
					"presentation" : 1,
					"fontsize" : 12.0,
					"id" : "obj-126",
					"minimum" : -128,
					"numinlets" : 1,
					"maximum" : 127,
					"numoutlets" : 2
				}

			}
, 			{
				"box" : 				{
					"maxclass" : "comment",
					"text" : "lfo2rate_sens",
					"fontname" : "Arial",
					"presentation_rect" : [ 121.0, 855.0, 96.0, 20.0 ],
					"patching_rect" : [ 1285.0, 945.0, 96.0, 20.0 ],
					"presentation" : 1,
					"fontsize" : 12.0,
					"id" : "obj-127",
					"numinlets" : 1,
					"numoutlets" : 0
				}

			}
, 			{
				"box" : 				{
					"maxclass" : "number",
					"outlettype" : [ "int", "bang" ],
					"fontname" : "Arial",
					"presentation_rect" : [ 121.0, 833.0, 50.0, 20.0 ],
					"patching_rect" : [ 1285.0, 923.0, 50.0, 20.0 ],
					"presentation" : 1,
					"fontsize" : 12.0,
					"id" : "obj-128",
					"minimum" : -128,
					"numinlets" : 1,
					"maximum" : 127,
					"numoutlets" : 2
				}

			}
, 			{
				"box" : 				{
					"maxclass" : "comment",
					"text" : "lfo1level_sens",
					"fontname" : "Arial",
					"presentation_rect" : [ 387.0, 720.0, 96.0, 20.0 ],
					"patching_rect" : [ 1180.0, 945.0, 96.0, 20.0 ],
					"presentation" : 1,
					"fontsize" : 12.0,
					"id" : "obj-129",
					"numinlets" : 1,
					"numoutlets" : 0
				}

			}
, 			{
				"box" : 				{
					"maxclass" : "number",
					"outlettype" : [ "int", "bang" ],
					"fontname" : "Arial",
					"presentation_rect" : [ 387.0, 698.0, 50.0, 20.0 ],
					"patching_rect" : [ 1180.0, 923.0, 50.0, 20.0 ],
					"presentation" : 1,
					"fontsize" : 12.0,
					"id" : "obj-130",
					"minimum" : -128,
					"numinlets" : 1,
					"maximum" : 127,
					"numoutlets" : 2
				}

			}
, 			{
				"box" : 				{
					"maxclass" : "comment",
					"text" : "lfo1rate_sens",
					"fontname" : "Arial",
					"presentation_rect" : [ 121.0, 720.0, 96.0, 20.0 ],
					"patching_rect" : [ 1075.0, 945.0, 96.0, 20.0 ],
					"presentation" : 1,
					"fontsize" : 12.0,
					"id" : "obj-131",
					"numinlets" : 1,
					"numoutlets" : 0
				}

			}
, 			{
				"box" : 				{
					"maxclass" : "number",
					"outlettype" : [ "int", "bang" ],
					"fontname" : "Arial",
					"presentation_rect" : [ 121.0, 698.0, 50.0, 20.0 ],
					"patching_rect" : [ 1075.0, 923.0, 50.0, 20.0 ],
					"presentation" : 1,
					"fontsize" : 12.0,
					"id" : "obj-132",
					"minimum" : -128,
					"numinlets" : 1,
					"maximum" : 127,
					"numoutlets" : 2
				}

			}
, 			{
				"box" : 				{
					"maxclass" : "comment",
					"text" : "modenvlevel_sens",
					"linecount" : 2,
					"presentation_linecount" : 2,
					"fontname" : "Arial",
					"presentation_rect" : [ 355.0, 990.0, 84.0, 34.0 ],
					"patching_rect" : [ 970.0, 945.0, 96.0, 34.0 ],
					"presentation" : 1,
					"fontsize" : 12.0,
					"id" : "obj-133",
					"numinlets" : 1,
					"numoutlets" : 0
				}

			}
, 			{
				"box" : 				{
					"maxclass" : "number",
					"outlettype" : [ "int", "bang" ],
					"fontname" : "Arial",
					"presentation_rect" : [ 355.0, 968.0, 50.0, 20.0 ],
					"patching_rect" : [ 970.0, 923.0, 50.0, 20.0 ],
					"presentation" : 1,
					"fontsize" : 12.0,
					"id" : "obj-134",
					"minimum" : -128,
					"numinlets" : 1,
					"maximum" : 127,
					"numoutlets" : 2
				}

			}
, 			{
				"box" : 				{
					"maxclass" : "comment",
					"text" : "modenvdecay_sens",
					"linecount" : 2,
					"presentation_linecount" : 2,
					"fontname" : "Arial",
					"presentation_rect" : [ 205.0, 990.0, 90.0, 34.0 ],
					"patching_rect" : [ 1390.0, 885.0, 96.0, 34.0 ],
					"presentation" : 1,
					"fontsize" : 12.0,
					"id" : "obj-115",
					"numinlets" : 1,
					"numoutlets" : 0
				}

			}
, 			{
				"box" : 				{
					"maxclass" : "number",
					"outlettype" : [ "int", "bang" ],
					"fontname" : "Arial",
					"presentation_rect" : [ 205.0, 968.0, 50.0, 20.0 ],
					"patching_rect" : [ 1390.0, 863.0, 50.0, 20.0 ],
					"presentation" : 1,
					"fontsize" : 12.0,
					"id" : "obj-116",
					"minimum" : -128,
					"numinlets" : 1,
					"maximum" : 127,
					"numoutlets" : 2
				}

			}
, 			{
				"box" : 				{
					"maxclass" : "comment",
					"text" : "modenvattack_sens",
					"linecount" : 2,
					"presentation_linecount" : 2,
					"fontname" : "Arial",
					"presentation_rect" : [ 91.0, 990.0, 92.0, 34.0 ],
					"patching_rect" : [ 1285.0, 885.0, 96.0, 34.0 ],
					"presentation" : 1,
					"fontsize" : 12.0,
					"id" : "obj-117",
					"numinlets" : 1,
					"numoutlets" : 0
				}

			}
, 			{
				"box" : 				{
					"maxclass" : "number",
					"outlettype" : [ "int", "bang" ],
					"fontname" : "Arial",
					"presentation_rect" : [ 91.0, 968.0, 50.0, 20.0 ],
					"patching_rect" : [ 1285.0, 863.0, 50.0, 20.0 ],
					"presentation" : 1,
					"fontsize" : 12.0,
					"id" : "obj-118",
					"minimum" : -128,
					"numinlets" : 1,
					"maximum" : 127,
					"numoutlets" : 2
				}

			}
, 			{
				"box" : 				{
					"maxclass" : "comment",
					"text" : "gain_sens",
					"fontname" : "Arial",
					"presentation_rect" : [ 1300.0, 735.0, 96.0, 20.0 ],
					"patching_rect" : [ 1180.0, 885.0, 96.0, 20.0 ],
					"presentation" : 1,
					"fontsize" : 12.0,
					"id" : "obj-119",
					"numinlets" : 1,
					"numoutlets" : 0
				}

			}
, 			{
				"box" : 				{
					"maxclass" : "number",
					"outlettype" : [ "int", "bang" ],
					"fontname" : "Arial",
					"presentation_rect" : [ 1300.0, 713.0, 50.0, 20.0 ],
					"patching_rect" : [ 1180.0, 863.0, 50.0, 20.0 ],
					"presentation" : 1,
					"fontsize" : 12.0,
					"id" : "obj-120",
					"minimum" : -128,
					"numinlets" : 1,
					"maximum" : 127,
					"numoutlets" : 2
				}

			}
, 			{
				"box" : 				{
					"maxclass" : "comment",
					"text" : "portamento_sens",
					"linecount" : 2,
					"presentation_linecount" : 2,
					"fontname" : "Arial",
					"presentation_rect" : [ 320.0, 1065.0, 74.0, 34.0 ],
					"patching_rect" : [ 1075.0, 885.0, 96.0, 34.0 ],
					"presentation" : 1,
					"fontsize" : 12.0,
					"id" : "obj-121",
					"numinlets" : 1,
					"numoutlets" : 0
				}

			}
, 			{
				"box" : 				{
					"maxclass" : "number",
					"outlettype" : [ "int", "bang" ],
					"fontname" : "Arial",
					"presentation_rect" : [ 320.0, 1043.0, 50.0, 20.0 ],
					"patching_rect" : [ 1075.0, 863.0, 50.0, 20.0 ],
					"presentation" : 1,
					"fontsize" : 12.0,
					"id" : "obj-122",
					"minimum" : -128,
					"numinlets" : 1,
					"maximum" : 127,
					"numoutlets" : 2
				}

			}
, 			{
				"box" : 				{
					"maxclass" : "comment",
					"text" : "ampenvrelease_sens",
					"linecount" : 2,
					"presentation_linecount" : 2,
					"fontname" : "Arial",
					"presentation_rect" : [ 1195.0, 735.0, 96.0, 34.0 ],
					"patching_rect" : [ 970.0, 885.0, 96.0, 34.0 ],
					"presentation" : 1,
					"fontsize" : 12.0,
					"id" : "obj-123",
					"numinlets" : 1,
					"numoutlets" : 0
				}

			}
, 			{
				"box" : 				{
					"maxclass" : "number",
					"outlettype" : [ "int", "bang" ],
					"fontname" : "Arial",
					"presentation_rect" : [ 1195.0, 713.0, 50.0, 20.0 ],
					"patching_rect" : [ 970.0, 863.0, 50.0, 20.0 ],
					"presentation" : 1,
					"fontsize" : 12.0,
					"id" : "obj-124",
					"minimum" : -128,
					"numinlets" : 1,
					"maximum" : 127,
					"numoutlets" : 2
				}

			}
, 			{
				"box" : 				{
					"maxclass" : "comment",
					"text" : "ampenvsustain_sens",
					"linecount" : 2,
					"presentation_linecount" : 2,
					"fontname" : "Arial",
					"presentation_rect" : [ 1090.0, 735.0, 96.0, 34.0 ],
					"patching_rect" : [ 1390.0, 825.0, 96.0, 34.0 ],
					"presentation" : 1,
					"fontsize" : 12.0,
					"id" : "obj-105",
					"numinlets" : 1,
					"numoutlets" : 0
				}

			}
, 			{
				"box" : 				{
					"maxclass" : "number",
					"outlettype" : [ "int", "bang" ],
					"fontname" : "Arial",
					"presentation_rect" : [ 1090.0, 713.0, 50.0, 20.0 ],
					"patching_rect" : [ 1390.0, 803.0, 50.0, 20.0 ],
					"presentation" : 1,
					"fontsize" : 12.0,
					"id" : "obj-106",
					"minimum" : -128,
					"numinlets" : 1,
					"maximum" : 127,
					"numoutlets" : 2
				}

			}
, 			{
				"box" : 				{
					"maxclass" : "comment",
					"text" : "ampenvdecay_sens",
					"linecount" : 2,
					"presentation_linecount" : 2,
					"fontname" : "Arial",
					"presentation_rect" : [ 985.0, 735.0, 96.0, 34.0 ],
					"patching_rect" : [ 1285.0, 825.0, 96.0, 34.0 ],
					"presentation" : 1,
					"fontsize" : 12.0,
					"id" : "obj-107",
					"numinlets" : 1,
					"numoutlets" : 0
				}

			}
, 			{
				"box" : 				{
					"maxclass" : "number",
					"outlettype" : [ "int", "bang" ],
					"fontname" : "Arial",
					"presentation_rect" : [ 985.0, 713.0, 50.0, 20.0 ],
					"patching_rect" : [ 1285.0, 803.0, 50.0, 20.0 ],
					"presentation" : 1,
					"fontsize" : 12.0,
					"id" : "obj-108",
					"minimum" : -128,
					"numinlets" : 1,
					"maximum" : 127,
					"numoutlets" : 2
				}

			}
, 			{
				"box" : 				{
					"maxclass" : "comment",
					"text" : "ampenvattack_sens",
					"linecount" : 2,
					"presentation_linecount" : 2,
					"fontname" : "Arial",
					"presentation_rect" : [ 880.0, 735.0, 96.0, 34.0 ],
					"patching_rect" : [ 1180.0, 825.0, 96.0, 34.0 ],
					"presentation" : 1,
					"fontsize" : 12.0,
					"id" : "obj-109",
					"numinlets" : 1,
					"numoutlets" : 0
				}

			}
, 			{
				"box" : 				{
					"maxclass" : "number",
					"outlettype" : [ "int", "bang" ],
					"fontname" : "Arial",
					"presentation_rect" : [ 880.0, 713.0, 50.0, 20.0 ],
					"patching_rect" : [ 1180.0, 803.0, 50.0, 20.0 ],
					"presentation" : 1,
					"fontsize" : 12.0,
					"id" : "obj-110",
					"minimum" : -128,
					"numinlets" : 1,
					"maximum" : 127,
					"numoutlets" : 2
				}

			}
, 			{
				"box" : 				{
					"maxclass" : "comment",
					"text" : "filterenvrelease_sens",
					"linecount" : 2,
					"presentation_linecount" : 2,
					"fontname" : "Arial",
					"presentation_rect" : [ 1229.0, 915.0, 96.0, 34.0 ],
					"patching_rect" : [ 1075.0, 825.0, 96.0, 34.0 ],
					"presentation" : 1,
					"fontsize" : 12.0,
					"id" : "obj-111",
					"numinlets" : 1,
					"numoutlets" : 0
				}

			}
, 			{
				"box" : 				{
					"maxclass" : "number",
					"outlettype" : [ "int", "bang" ],
					"fontname" : "Arial",
					"presentation_rect" : [ 1229.0, 893.0, 50.0, 20.0 ],
					"patching_rect" : [ 1075.0, 803.0, 50.0, 20.0 ],
					"presentation" : 1,
					"fontsize" : 12.0,
					"id" : "obj-112",
					"minimum" : -128,
					"numinlets" : 1,
					"maximum" : 127,
					"numoutlets" : 2
				}

			}
, 			{
				"box" : 				{
					"maxclass" : "comment",
					"text" : "filterenvsustain_sens",
					"linecount" : 2,
					"presentation_linecount" : 2,
					"fontname" : "Arial",
					"presentation_rect" : [ 1112.0, 915.0, 96.0, 34.0 ],
					"patching_rect" : [ 970.0, 825.0, 96.0, 34.0 ],
					"presentation" : 1,
					"fontsize" : 12.0,
					"id" : "obj-113",
					"numinlets" : 1,
					"numoutlets" : 0
				}

			}
, 			{
				"box" : 				{
					"maxclass" : "number",
					"outlettype" : [ "int", "bang" ],
					"fontname" : "Arial",
					"presentation_rect" : [ 1112.0, 893.0, 50.0, 20.0 ],
					"patching_rect" : [ 970.0, 803.0, 50.0, 20.0 ],
					"presentation" : 1,
					"fontsize" : 12.0,
					"id" : "obj-114",
					"minimum" : -128,
					"numinlets" : 1,
					"maximum" : 127,
					"numoutlets" : 2
				}

			}
, 			{
				"box" : 				{
					"maxclass" : "comment",
					"text" : "filterenvdecay_sens",
					"linecount" : 2,
					"presentation_linecount" : 2,
					"fontname" : "Arial",
					"presentation_rect" : [ 992.0, 915.0, 83.0, 34.0 ],
					"patching_rect" : [ 1390.0, 765.0, 96.0, 34.0 ],
					"presentation" : 1,
					"fontsize" : 12.0,
					"id" : "obj-83",
					"numinlets" : 1,
					"numoutlets" : 0
				}

			}
, 			{
				"box" : 				{
					"maxclass" : "number",
					"outlettype" : [ "int", "bang" ],
					"fontname" : "Arial",
					"presentation_rect" : [ 992.0, 893.0, 50.0, 20.0 ],
					"patching_rect" : [ 1390.0, 743.0, 50.0, 20.0 ],
					"presentation" : 1,
					"fontsize" : 12.0,
					"id" : "obj-84",
					"minimum" : -128,
					"numinlets" : 1,
					"maximum" : 127,
					"numoutlets" : 2
				}

			}
, 			{
				"box" : 				{
					"maxclass" : "comment",
					"text" : "filterenvattack_sens",
					"linecount" : 2,
					"presentation_linecount" : 2,
					"fontname" : "Arial",
					"presentation_rect" : [ 887.0, 915.0, 83.0, 34.0 ],
					"patching_rect" : [ 1285.0, 765.0, 96.0, 34.0 ],
					"presentation" : 1,
					"fontsize" : 12.0,
					"id" : "obj-85",
					"numinlets" : 1,
					"numoutlets" : 0
				}

			}
, 			{
				"box" : 				{
					"maxclass" : "number",
					"outlettype" : [ "int", "bang" ],
					"fontname" : "Arial",
					"presentation_rect" : [ 887.0, 893.0, 50.0, 20.0 ],
					"patching_rect" : [ 1285.0, 743.0, 50.0, 20.0 ],
					"presentation" : 1,
					"fontsize" : 12.0,
					"id" : "obj-86",
					"minimum" : -128,
					"numinlets" : 1,
					"maximum" : 127,
					"numoutlets" : 2
				}

			}
, 			{
				"box" : 				{
					"maxclass" : "comment",
					"text" : "fmdepth_sens",
					"fontname" : "Arial",
					"presentation_rect" : [ 547.0, 795.0, 96.0, 20.0 ],
					"patching_rect" : [ 1180.0, 765.0, 96.0, 20.0 ],
					"presentation" : 1,
					"fontsize" : 12.0,
					"id" : "obj-87",
					"numinlets" : 1,
					"numoutlets" : 0
				}

			}
, 			{
				"box" : 				{
					"maxclass" : "number",
					"outlettype" : [ "int", "bang" ],
					"fontname" : "Arial",
					"presentation_rect" : [ 547.0, 773.0, 50.0, 20.0 ],
					"patching_rect" : [ 1180.0, 743.0, 50.0, 20.0 ],
					"presentation" : 1,
					"fontsize" : 12.0,
					"id" : "obj-88",
					"minimum" : -128,
					"numinlets" : 1,
					"maximum" : 127,
					"numoutlets" : 2
				}

			}
, 			{
				"box" : 				{
					"maxclass" : "comment",
					"text" : "pw_sens",
					"fontname" : "Arial",
					"presentation_rect" : [ 547.0, 900.0, 96.0, 20.0 ],
					"patching_rect" : [ 1075.0, 765.0, 96.0, 20.0 ],
					"presentation" : 1,
					"fontsize" : 12.0,
					"id" : "obj-89",
					"numinlets" : 1,
					"numoutlets" : 0
				}

			}
, 			{
				"box" : 				{
					"maxclass" : "number",
					"outlettype" : [ "int", "bang" ],
					"fontname" : "Arial",
					"presentation_rect" : [ 547.0, 878.0, 50.0, 20.0 ],
					"patching_rect" : [ 1075.0, 743.0, 50.0, 20.0 ],
					"presentation" : 1,
					"fontsize" : 12.0,
					"id" : "obj-102",
					"minimum" : -128,
					"numinlets" : 1,
					"maximum" : 127,
					"numoutlets" : 2
				}

			}
, 			{
				"box" : 				{
					"maxclass" : "comment",
					"text" : "filterenvamt_sens",
					"linecount" : 2,
					"fontname" : "Arial",
					"presentation_rect" : [ 1112.0, 1020.0, 108.0, 20.0 ],
					"patching_rect" : [ 970.0, 765.0, 96.0, 34.0 ],
					"presentation" : 1,
					"fontsize" : 12.0,
					"id" : "obj-103",
					"numinlets" : 1,
					"numoutlets" : 0
				}

			}
, 			{
				"box" : 				{
					"maxclass" : "number",
					"outlettype" : [ "int", "bang" ],
					"fontname" : "Arial",
					"presentation_rect" : [ 1112.0, 998.0, 50.0, 20.0 ],
					"patching_rect" : [ 970.0, 743.0, 50.0, 20.0 ],
					"presentation" : 1,
					"fontsize" : 12.0,
					"id" : "obj-104",
					"minimum" : -128,
					"numinlets" : 1,
					"maximum" : 127,
					"numoutlets" : 2
				}

			}
, 			{
				"box" : 				{
					"maxclass" : "comment",
					"text" : "resonance_sens",
					"linecount" : 2,
					"fontname" : "Arial",
					"presentation_rect" : [ 992.0, 1020.0, 102.0, 20.0 ],
					"patching_rect" : [ 1390.0, 705.0, 96.0, 34.0 ],
					"presentation" : 1,
					"fontsize" : 12.0,
					"id" : "obj-79",
					"numinlets" : 1,
					"numoutlets" : 0
				}

			}
, 			{
				"box" : 				{
					"maxclass" : "number",
					"outlettype" : [ "int", "bang" ],
					"fontname" : "Arial",
					"presentation_rect" : [ 992.0, 998.0, 50.0, 20.0 ],
					"patching_rect" : [ 1390.0, 683.0, 50.0, 20.0 ],
					"presentation" : 1,
					"fontsize" : 12.0,
					"id" : "obj-80",
					"minimum" : -128,
					"numinlets" : 1,
					"maximum" : 127,
					"numoutlets" : 2
				}

			}
, 			{
				"box" : 				{
					"maxclass" : "comment",
					"text" : "cutoff_sens",
					"fontname" : "Arial",
					"presentation_rect" : [ 887.0, 1020.0, 96.0, 20.0 ],
					"patching_rect" : [ 1285.0, 705.0, 96.0, 20.0 ],
					"presentation" : 1,
					"fontsize" : 12.0,
					"id" : "obj-77",
					"numinlets" : 1,
					"numoutlets" : 0
				}

			}
, 			{
				"box" : 				{
					"maxclass" : "number",
					"outlettype" : [ "int", "bang" ],
					"fontname" : "Arial",
					"presentation_rect" : [ 887.0, 998.0, 50.0, 20.0 ],
					"patching_rect" : [ 1285.0, 683.0, 50.0, 20.0 ],
					"presentation" : 1,
					"fontsize" : 12.0,
					"id" : "obj-78",
					"minimum" : -128,
					"numinlets" : 1,
					"maximum" : 127,
					"numoutlets" : 2
				}

			}
, 			{
				"box" : 				{
					"maxclass" : "comment",
					"text" : "mix_sens",
					"fontname" : "Arial",
					"presentation_rect" : [ 736.0, 900.0, 96.0, 20.0 ],
					"patching_rect" : [ 1180.0, 705.0, 96.0, 20.0 ],
					"presentation" : 1,
					"fontsize" : 12.0,
					"id" : "obj-75",
					"numinlets" : 1,
					"numoutlets" : 0
				}

			}
, 			{
				"box" : 				{
					"maxclass" : "number",
					"outlettype" : [ "int", "bang" ],
					"fontname" : "Arial",
					"presentation_rect" : [ 736.0, 878.0, 50.0, 20.0 ],
					"patching_rect" : [ 1180.0, 683.0, 50.0, 20.0 ],
					"presentation" : 1,
					"fontsize" : 12.0,
					"id" : "obj-76",
					"minimum" : -128,
					"numinlets" : 1,
					"maximum" : 127,
					"numoutlets" : 2
				}

			}
, 			{
				"box" : 				{
					"maxclass" : "comment",
					"text" : "osc2pitchfine_sens",
					"linecount" : 2,
					"fontname" : "Arial",
					"presentation_rect" : [ 646.0, 795.0, 122.0, 20.0 ],
					"patching_rect" : [ 1075.0, 705.0, 96.0, 34.0 ],
					"presentation" : 1,
					"fontsize" : 12.0,
					"id" : "obj-65",
					"numinlets" : 1,
					"numoutlets" : 0
				}

			}
, 			{
				"box" : 				{
					"maxclass" : "number",
					"outlettype" : [ "int", "bang" ],
					"fontname" : "Arial",
					"presentation_rect" : [ 646.0, 773.0, 50.0, 20.0 ],
					"patching_rect" : [ 1075.0, 683.0, 50.0, 20.0 ],
					"presentation" : 1,
					"fontsize" : 12.0,
					"id" : "obj-74",
					"minimum" : -128,
					"numinlets" : 1,
					"maximum" : 127,
					"numoutlets" : 2
				}

			}
, 			{
				"box" : 				{
					"maxclass" : "comment",
					"text" : "osc2pitch_sens",
					"fontname" : "Arial",
					"presentation_rect" : [ 646.0, 735.0, 96.0, 20.0 ],
					"patching_rect" : [ 970.0, 705.0, 96.0, 20.0 ],
					"presentation" : 1,
					"fontsize" : 12.0,
					"id" : "obj-64",
					"numinlets" : 1,
					"numoutlets" : 0
				}

			}
, 			{
				"box" : 				{
					"maxclass" : "number",
					"outlettype" : [ "int", "bang" ],
					"fontname" : "Arial",
					"presentation_rect" : [ 646.0, 713.0, 50.0, 20.0 ],
					"patching_rect" : [ 970.0, 683.0, 50.0, 20.0 ],
					"presentation" : 1,
					"fontsize" : 12.0,
					"id" : "obj-62",
					"minimum" : -128,
					"numinlets" : 1,
					"maximum" : 127,
					"numoutlets" : 2
				}

			}
, 			{
				"box" : 				{
					"maxclass" : "newobj",
					"text" : "print debug",
					"fontname" : "Arial",
					"patching_rect" : [ 443.0, 219.0, 71.0, 20.0 ],
					"fontsize" : 12.0,
					"id" : "obj-32",
					"numinlets" : 1,
					"numoutlets" : 0
				}

			}
, 			{
				"box" : 				{
					"maxclass" : "message",
					"text" : "raw",
					"outlettype" : [ "" ],
					"fontname" : "Arial",
					"patching_rect" : [ 582.0, 131.0, 32.5, 18.0 ],
					"fontsize" : 12.0,
					"id" : "obj-31",
					"numinlets" : 2,
					"numoutlets" : 1
				}

			}
, 			{
				"box" : 				{
					"maxclass" : "comment",
					"text" : "Select percussion",
					"fontname" : "Arial",
					"presentation_rect" : [ 659.0, 16.0, 129.0, 20.0 ],
					"patching_rect" : [ 60.0, 58.0, 148.0, 20.0 ],
					"presentation" : 1,
					"fontsize" : 12.0,
					"id" : "obj-4",
					"numinlets" : 1,
					"numoutlets" : 0
				}

			}
, 			{
				"box" : 				{
					"maxclass" : "message",
					"text" : "percussion $1",
					"outlettype" : [ "" ],
					"fontname" : "Arial",
					"patching_rect" : [ 114.0, 136.0, 85.0, 18.0 ],
					"fontsize" : 12.0,
					"id" : "obj-59",
					"numinlets" : 2,
					"numoutlets" : 1
				}

			}
, 			{
				"box" : 				{
					"maxclass" : "umenu",
					"outlettype" : [ "int", "", "" ],
					"fontname" : "Arial",
					"presentation_rect" : [ 551.0, 16.0, 100.0, 20.0 ],
					"items" : [ "percussion", 1, ",", "percussion", 2, ",", "percussion", 3, ",", "percussion", 4, ",", "percussion", 5, ",", "percussion", 6, ",", "percussion", 7, ",", "percussion", 8 ],
					"types" : [  ],
					"patching_rect" : [ 114.0, 87.0, 100.0, 20.0 ],
					"presentation" : 1,
					"fontsize" : 12.0,
					"id" : "obj-20",
					"numinlets" : 1,
					"numoutlets" : 3
				}

			}
, 			{
				"box" : 				{
					"maxclass" : "comment",
					"text" : "Select Midi Device",
					"fontname" : "Arial",
					"presentation_rect" : [ 392.0, 16.0, 125.0, 20.0 ],
					"patching_rect" : [ 380.0, 127.0, 147.0, 20.0 ],
					"presentation" : 1,
					"fontsize" : 12.0,
					"id" : "obj-15",
					"numinlets" : 1,
					"numoutlets" : 0
				}

			}
, 			{
				"box" : 				{
					"maxclass" : "comment",
					"text" : "Refresh Midi Device",
					"fontname" : "Arial",
					"presentation_rect" : [ 104.0, 16.0, 129.0, 20.0 ],
					"patching_rect" : [ 250.0, 17.0, 148.0, 20.0 ],
					"presentation" : 1,
					"fontsize" : 12.0,
					"id" : "obj-13",
					"numinlets" : 1,
					"numoutlets" : 0
				}

			}
, 			{
				"box" : 				{
					"maxclass" : "umenu",
					"outlettype" : [ "int", "", "" ],
					"fontname" : "Arial",
					"presentation_rect" : [ 288.0, 16.0, 100.0, 20.0 ],
					"items" : [ "to MaxMSP 1", ",", "to MaxMSP 2", ",", "Elektron TM-1" ],
					"types" : [  ],
					"patching_rect" : [ 261.0, 131.0, 100.0, 20.0 ],
					"presentation" : 1,
					"fontsize" : 12.0,
					"id" : "obj-12",
					"numinlets" : 1,
					"numoutlets" : 3
				}

			}
, 			{
				"box" : 				{
					"maxclass" : "newobj",
					"text" : "midiinfo",
					"outlettype" : [ "" ],
					"fontname" : "Arial",
					"patching_rect" : [ 261.0, 95.0, 52.0, 20.0 ],
					"fontsize" : 12.0,
					"id" : "obj-8",
					"numinlets" : 2,
					"numoutlets" : 1
				}

			}
, 			{
				"box" : 				{
					"maxclass" : "newobj",
					"text" : "loadbang",
					"outlettype" : [ "bang" ],
					"fontname" : "Arial",
					"patching_rect" : [ 261.0, 55.0, 60.0, 20.0 ],
					"fontsize" : 12.0,
					"id" : "obj-7",
					"numinlets" : 1,
					"numoutlets" : 1
				}

			}
, 			{
				"box" : 				{
					"maxclass" : "button",
					"outlettype" : [ "bang" ],
					"presentation_rect" : [ 80.0, 16.0, 23.0, 23.0 ],
					"patching_rect" : [ 388.0, 55.0, 20.0, 20.0 ],
					"presentation" : 1,
					"id" : "obj-5",
					"numinlets" : 1,
					"numoutlets" : 1
				}

			}
, 			{
				"box" : 				{
					"maxclass" : "comment",
					"text" : "LFO2",
					"fontname" : "Arial",
					"presentation_rect" : [ 84.0, 195.0, 168.0, 27.0 ],
					"patching_rect" : [ 1228.0, 67.0, 110.0, 27.0 ],
					"presentation" : 1,
					"fontsize" : 18.0,
					"id" : "obj-101",
					"numinlets" : 1,
					"numoutlets" : 0
				}

			}
, 			{
				"box" : 				{
					"maxclass" : "comment",
					"text" : "Amt/Arp range",
					"linecount" : 2,
					"fontname" : "Arial",
					"presentation_rect" : [ 387.0, 277.0, 89.0, 20.0 ],
					"patching_rect" : [ 1451.0, 382.0, 68.0, 34.0 ],
					"presentation" : 1,
					"fontsize" : 12.0,
					"id" : "obj-96",
					"numinlets" : 1,
					"numoutlets" : 0
				}

			}
, 			{
				"box" : 				{
					"maxclass" : "dial",
					"outlettype" : [ "float" ],
					"presentation_rect" : [ 387.0, 233.0, 40.0, 40.0 ],
					"patching_rect" : [ 1527.0, 369.0, 40.0, 40.0 ],
					"presentation" : 1,
					"id" : "obj-97",
					"numinlets" : 1,
					"numoutlets" : 1
				}

			}
, 			{
				"box" : 				{
					"maxclass" : "comment",
					"text" : "Rate",
					"fontname" : "Arial",
					"presentation_rect" : [ 121.0, 277.0, 68.0, 20.0 ],
					"patching_rect" : [ 1451.0, 323.0, 68.0, 20.0 ],
					"presentation" : 1,
					"fontsize" : 12.0,
					"id" : "obj-98",
					"numinlets" : 1,
					"numoutlets" : 0
				}

			}
, 			{
				"box" : 				{
					"maxclass" : "dial",
					"outlettype" : [ "float" ],
					"presentation_rect" : [ 121.0, 233.0, 40.0, 40.0 ],
					"patching_rect" : [ 1527.0, 310.0, 40.0, 40.0 ],
					"presentation" : 1,
					"id" : "obj-99",
					"numinlets" : 1,
					"numoutlets" : 1
				}

			}
, 			{
				"box" : 				{
					"maxclass" : "panel",
					"presentation_rect" : [ 75.0, 186.0, 403.0, 131.0 ],
					"bgcolor" : [ 0.545098, 0.85098, 0.592157, 1.0 ],
					"patching_rect" : [ 1396.0, 293.0, 196.0, 225.0 ],
					"presentation" : 1,
					"id" : "obj-100",
					"numinlets" : 1,
					"numoutlets" : 0
				}

			}
, 			{
				"box" : 				{
					"maxclass" : "comment",
					"text" : "LFO1",
					"fontname" : "Arial",
					"presentation_rect" : [ 84.0, 62.0, 168.0, 27.0 ],
					"patching_rect" : [ 1092.0, 67.0, 110.0, 27.0 ],
					"presentation" : 1,
					"fontsize" : 18.0,
					"id" : "obj-95",
					"numinlets" : 1,
					"numoutlets" : 0
				}

			}
, 			{
				"box" : 				{
					"maxclass" : "comment",
					"text" : "Amount",
					"fontname" : "Arial",
					"presentation_rect" : [ 387.0, 148.0, 68.0, 20.0 ],
					"patching_rect" : [ 1208.0, 382.0, 68.0, 20.0 ],
					"presentation" : 1,
					"fontsize" : 12.0,
					"id" : "obj-90",
					"numinlets" : 1,
					"numoutlets" : 0
				}

			}
, 			{
				"box" : 				{
					"maxclass" : "dial",
					"outlettype" : [ "float" ],
					"presentation_rect" : [ 387.0, 107.0, 40.0, 40.0 ],
					"patching_rect" : [ 1284.0, 369.0, 40.0, 40.0 ],
					"presentation" : 1,
					"id" : "obj-91",
					"numinlets" : 1,
					"numoutlets" : 1
				}

			}
, 			{
				"box" : 				{
					"maxclass" : "comment",
					"text" : "Rate",
					"fontname" : "Arial",
					"presentation_rect" : [ 121.0, 148.0, 68.0, 20.0 ],
					"patching_rect" : [ 1208.0, 323.0, 68.0, 20.0 ],
					"presentation" : 1,
					"fontsize" : 12.0,
					"id" : "obj-92",
					"numinlets" : 1,
					"numoutlets" : 0
				}

			}
, 			{
				"box" : 				{
					"maxclass" : "dial",
					"outlettype" : [ "float" ],
					"presentation_rect" : [ 121.0, 107.0, 40.0, 40.0 ],
					"patching_rect" : [ 1284.0, 310.0, 40.0, 40.0 ],
					"presentation" : 1,
					"id" : "obj-93",
					"numinlets" : 1,
					"numoutlets" : 1
				}

			}
, 			{
				"box" : 				{
					"maxclass" : "panel",
					"presentation_rect" : [ 75.0, 53.0, 403.0, 131.0 ],
					"bgcolor" : [ 0.694118, 0.694118, 0.694118, 1.0 ],
					"patching_rect" : [ 1153.0, 293.0, 196.0, 225.0 ],
					"presentation" : 1,
					"id" : "obj-94",
					"numinlets" : 1,
					"numoutlets" : 0
				}

			}
, 			{
				"box" : 				{
					"maxclass" : "comment",
					"text" : "Mod env",
					"fontname" : "Arial",
					"presentation_rect" : [ 84.0, 326.0, 168.0, 27.0 ],
					"patching_rect" : [ 950.0, 67.0, 110.0, 27.0 ],
					"presentation" : 1,
					"fontsize" : 18.0,
					"id" : "obj-73",
					"numinlets" : 1,
					"numoutlets" : 0
				}

			}
, 			{
				"box" : 				{
					"maxclass" : "comment",
					"text" : "Amount",
					"fontname" : "Arial",
					"presentation_rect" : [ 387.0, 413.0, 68.0, 20.0 ],
					"patching_rect" : [ 971.0, 437.0, 68.0, 20.0 ],
					"presentation" : 1,
					"fontsize" : 12.0,
					"id" : "obj-66",
					"numinlets" : 1,
					"numoutlets" : 0
				}

			}
, 			{
				"box" : 				{
					"maxclass" : "dial",
					"outlettype" : [ "float" ],
					"presentation_rect" : [ 387.0, 363.0, 40.0, 40.0 ],
					"patching_rect" : [ 1047.0, 424.0, 40.0, 40.0 ],
					"presentation" : 1,
					"id" : "obj-67",
					"numinlets" : 1,
					"numoutlets" : 1
				}

			}
, 			{
				"box" : 				{
					"maxclass" : "comment",
					"text" : "Decay",
					"fontname" : "Arial",
					"presentation_rect" : [ 206.0, 413.0, 68.0, 20.0 ],
					"patching_rect" : [ 971.0, 382.0, 68.0, 20.0 ],
					"presentation" : 1,
					"fontsize" : 12.0,
					"id" : "obj-68",
					"numinlets" : 1,
					"numoutlets" : 0
				}

			}
, 			{
				"box" : 				{
					"maxclass" : "dial",
					"outlettype" : [ "float" ],
					"presentation_rect" : [ 206.0, 363.0, 40.0, 40.0 ],
					"patching_rect" : [ 1047.0, 369.0, 40.0, 40.0 ],
					"presentation" : 1,
					"id" : "obj-69",
					"numinlets" : 1,
					"numoutlets" : 1
				}

			}
, 			{
				"box" : 				{
					"maxclass" : "comment",
					"text" : "Attack",
					"fontname" : "Arial",
					"presentation_rect" : [ 121.0, 413.0, 68.0, 20.0 ],
					"patching_rect" : [ 971.0, 323.0, 68.0, 20.0 ],
					"presentation" : 1,
					"fontsize" : 12.0,
					"id" : "obj-70",
					"numinlets" : 1,
					"numoutlets" : 0
				}

			}
, 			{
				"box" : 				{
					"maxclass" : "dial",
					"outlettype" : [ "float" ],
					"presentation_rect" : [ 121.0, 363.0, 40.0, 40.0 ],
					"patching_rect" : [ 1047.0, 310.0, 40.0, 40.0 ],
					"presentation" : 1,
					"id" : "obj-71",
					"numinlets" : 1,
					"numoutlets" : 1
				}

			}
, 			{
				"box" : 				{
					"maxclass" : "panel",
					"presentation_rect" : [ 75.0, 320.0, 403.0, 131.0 ],
					"bgcolor" : [ 0.917647, 0.937255, 0.670588, 1.0 ],
					"patching_rect" : [ 916.0, 293.0, 196.0, 225.0 ],
					"presentation" : 1,
					"id" : "obj-72",
					"numinlets" : 1,
					"numoutlets" : 0
				}

			}
, 			{
				"box" : 				{
					"maxclass" : "comment",
					"text" : "Nord Lead Knob Viewer",
					"fontname" : "Arial",
					"presentation_rect" : [ 1346.0, 20.0, 150.0, 20.0 ],
					"patching_rect" : [ 684.0, 87.0, 150.0, 20.0 ],
					"presentation" : 1,
					"fontsize" : 12.0,
					"id" : "obj-61",
					"numinlets" : 1,
					"numoutlets" : 0
				}

			}
, 			{
				"box" : 				{
					"maxclass" : "comment",
					"text" : "Gain",
					"fontname" : "Arial",
					"presentation_rect" : [ 1249.0, 181.0, 39.0, 20.0 ],
					"patching_rect" : [ 736.0, 557.0, 68.0, 20.0 ],
					"presentation" : 1,
					"fontsize" : 12.0,
					"id" : "obj-57",
					"numinlets" : 1,
					"numoutlets" : 0
				}

			}
, 			{
				"box" : 				{
					"maxclass" : "dial",
					"outlettype" : [ "float" ],
					"presentation_rect" : [ 1249.0, 129.0, 40.0, 40.0 ],
					"patching_rect" : [ 812.0, 544.0, 40.0, 40.0 ],
					"presentation" : 1,
					"id" : "obj-58",
					"numinlets" : 1,
					"numoutlets" : 1
				}

			}
, 			{
				"box" : 				{
					"maxclass" : "comment",
					"text" : "Portamento",
					"fontname" : "Arial",
					"presentation_rect" : [ 303.0, 526.0, 74.0, 20.0 ],
					"patching_rect" : [ 97.0, 749.0, 150.0, 20.0 ],
					"presentation" : 1,
					"fontsize" : 12.0,
					"id" : "obj-53",
					"numinlets" : 1,
					"numoutlets" : 0
				}

			}
, 			{
				"box" : 				{
					"maxclass" : "dial",
					"outlettype" : [ "float" ],
					"presentation_rect" : [ 320.0, 462.0, 40.0, 40.0 ],
					"patching_rect" : [ 264.0, 745.0, 40.0, 40.0 ],
					"presentation" : 1,
					"id" : "obj-54",
					"numinlets" : 1,
					"numoutlets" : 1
				}

			}
, 			{
				"box" : 				{
					"maxclass" : "comment",
					"text" : "Amplifier",
					"fontname" : "Arial",
					"presentation_rect" : [ 886.0, 75.0, 215.0, 27.0 ],
					"patching_rect" : [ 1001.0, 20.0, 215.0, 27.0 ],
					"presentation" : 1,
					"fontsize" : 18.0,
					"id" : "obj-52",
					"numinlets" : 1,
					"numoutlets" : 0
				}

			}
, 			{
				"box" : 				{
					"maxclass" : "comment",
					"text" : "Release",
					"fontname" : "Arial",
					"presentation_rect" : [ 1154.0, 181.0, 68.0, 20.0 ],
					"patching_rect" : [ 736.0, 494.0, 68.0, 20.0 ],
					"presentation" : 1,
					"fontsize" : 12.0,
					"id" : "obj-50",
					"numinlets" : 1,
					"numoutlets" : 0
				}

			}
, 			{
				"box" : 				{
					"maxclass" : "dial",
					"outlettype" : [ "float" ],
					"presentation_rect" : [ 1154.0, 129.0, 40.0, 40.0 ],
					"patching_rect" : [ 812.0, 481.0, 40.0, 40.0 ],
					"presentation" : 1,
					"id" : "obj-51",
					"numinlets" : 1,
					"numoutlets" : 1
				}

			}
, 			{
				"box" : 				{
					"maxclass" : "comment",
					"text" : "Sustain",
					"fontname" : "Arial",
					"presentation_rect" : [ 1067.0, 181.0, 68.0, 20.0 ],
					"patching_rect" : [ 736.0, 437.0, 68.0, 20.0 ],
					"presentation" : 1,
					"fontsize" : 12.0,
					"id" : "obj-48",
					"numinlets" : 1,
					"numoutlets" : 0
				}

			}
, 			{
				"box" : 				{
					"maxclass" : "dial",
					"outlettype" : [ "float" ],
					"presentation_rect" : [ 1067.0, 129.0, 40.0, 40.0 ],
					"patching_rect" : [ 812.0, 424.0, 40.0, 40.0 ],
					"presentation" : 1,
					"id" : "obj-49",
					"numinlets" : 1,
					"numoutlets" : 1
				}

			}
, 			{
				"box" : 				{
					"maxclass" : "comment",
					"text" : "Decay",
					"fontname" : "Arial",
					"presentation_rect" : [ 977.0, 181.0, 68.0, 20.0 ],
					"patching_rect" : [ 736.0, 382.0, 68.0, 20.0 ],
					"presentation" : 1,
					"fontsize" : 12.0,
					"id" : "obj-46",
					"numinlets" : 1,
					"numoutlets" : 0
				}

			}
, 			{
				"box" : 				{
					"maxclass" : "dial",
					"outlettype" : [ "float" ],
					"presentation_rect" : [ 977.0, 129.0, 40.0, 40.0 ],
					"patching_rect" : [ 812.0, 369.0, 40.0, 40.0 ],
					"presentation" : 1,
					"id" : "obj-47",
					"numinlets" : 1,
					"numoutlets" : 1
				}

			}
, 			{
				"box" : 				{
					"maxclass" : "comment",
					"text" : "Attack",
					"fontname" : "Arial",
					"presentation_rect" : [ 887.0, 181.0, 68.0, 20.0 ],
					"patching_rect" : [ 736.0, 323.0, 68.0, 20.0 ],
					"presentation" : 1,
					"fontsize" : 12.0,
					"id" : "obj-43",
					"numinlets" : 1,
					"numoutlets" : 0
				}

			}
, 			{
				"box" : 				{
					"maxclass" : "dial",
					"outlettype" : [ "float" ],
					"presentation_rect" : [ 887.0, 129.0, 40.0, 40.0 ],
					"patching_rect" : [ 812.0, 310.0, 40.0, 40.0 ],
					"presentation" : 1,
					"id" : "obj-44",
					"numinlets" : 1,
					"numoutlets" : 1
				}

			}
, 			{
				"box" : 				{
					"maxclass" : "panel",
					"presentation_rect" : [ 862.0, 54.0, 450.0, 149.0 ],
					"bgcolor" : [ 0.67451, 0.819608, 0.572549, 1.0 ],
					"patching_rect" : [ 681.0, 293.0, 200.0, 353.0 ],
					"presentation" : 1,
					"id" : "obj-45",
					"numinlets" : 1,
					"numoutlets" : 0
				}

			}
, 			{
				"box" : 				{
					"maxclass" : "comment",
					"text" : "Release",
					"fontname" : "Arial",
					"presentation_rect" : [ 1154.0, 343.0, 68.0, 20.0 ],
					"patching_rect" : [ 511.0, 666.0, 73.0, 20.0 ],
					"presentation" : 1,
					"fontsize" : 12.0,
					"id" : "obj-41",
					"numinlets" : 1,
					"numoutlets" : 0
				}

			}
, 			{
				"box" : 				{
					"maxclass" : "dial",
					"outlettype" : [ "float" ],
					"presentation_rect" : [ 1154.0, 297.0, 40.0, 40.0 ],
					"patching_rect" : [ 587.0, 662.0, 40.0, 40.0 ],
					"presentation" : 1,
					"id" : "obj-42",
					"numinlets" : 1,
					"numoutlets" : 1
				}

			}
, 			{
				"box" : 				{
					"maxclass" : "comment",
					"text" : "Sustain",
					"fontname" : "Arial",
					"presentation_rect" : [ 1067.0, 343.0, 68.0, 20.0 ],
					"patching_rect" : [ 511.0, 614.0, 73.0, 20.0 ],
					"presentation" : 1,
					"fontsize" : 12.0,
					"id" : "obj-39",
					"numinlets" : 1,
					"numoutlets" : 0
				}

			}
, 			{
				"box" : 				{
					"maxclass" : "dial",
					"outlettype" : [ "float" ],
					"presentation_rect" : [ 1067.0, 297.0, 40.0, 40.0 ],
					"patching_rect" : [ 587.0, 610.0, 40.0, 40.0 ],
					"presentation" : 1,
					"id" : "obj-40",
					"numinlets" : 1,
					"numoutlets" : 1
				}

			}
, 			{
				"box" : 				{
					"maxclass" : "comment",
					"text" : "Decay",
					"fontname" : "Arial",
					"presentation_rect" : [ 977.0, 343.0, 68.0, 20.0 ],
					"patching_rect" : [ 511.0, 561.0, 73.0, 20.0 ],
					"presentation" : 1,
					"fontsize" : 12.0,
					"id" : "obj-37",
					"numinlets" : 1,
					"numoutlets" : 0
				}

			}
, 			{
				"box" : 				{
					"maxclass" : "dial",
					"outlettype" : [ "float" ],
					"presentation_rect" : [ 977.0, 297.0, 40.0, 40.0 ],
					"patching_rect" : [ 587.0, 557.0, 40.0, 40.0 ],
					"presentation" : 1,
					"id" : "obj-38",
					"numinlets" : 1,
					"numoutlets" : 1
				}

			}
, 			{
				"box" : 				{
					"maxclass" : "comment",
					"text" : "Attack",
					"fontname" : "Arial",
					"presentation_rect" : [ 887.0, 343.0, 68.0, 20.0 ],
					"patching_rect" : [ 511.0, 511.0, 73.0, 20.0 ],
					"presentation" : 1,
					"fontsize" : 12.0,
					"id" : "obj-35",
					"numinlets" : 1,
					"numoutlets" : 0
				}

			}
, 			{
				"box" : 				{
					"maxclass" : "dial",
					"outlettype" : [ "float" ],
					"presentation_rect" : [ 887.0, 297.0, 40.0, 40.0 ],
					"patching_rect" : [ 587.0, 507.0, 40.0, 40.0 ],
					"presentation" : 1,
					"id" : "obj-36",
					"numinlets" : 1,
					"numoutlets" : 1
				}

			}
, 			{
				"box" : 				{
					"maxclass" : "comment",
					"text" : "FM amount",
					"fontname" : "Arial",
					"presentation_rect" : [ 547.0, 212.0, 74.0, 20.0 ],
					"patching_rect" : [ 97.0, 626.0, 150.0, 20.0 ],
					"presentation" : 1,
					"fontsize" : 12.0,
					"id" : "obj-33",
					"numinlets" : 1,
					"numoutlets" : 0
				}

			}
, 			{
				"box" : 				{
					"maxclass" : "dial",
					"outlettype" : [ "float" ],
					"presentation_rect" : [ 547.0, 159.0, 40.0, 40.0 ],
					"patching_rect" : [ 264.0, 622.0, 40.0, 40.0 ],
					"presentation" : 1,
					"id" : "obj-34",
					"numinlets" : 1,
					"numoutlets" : 1
				}

			}
, 			{
				"box" : 				{
					"maxclass" : "comment",
					"text" : "Pulse width",
					"fontname" : "Arial",
					"presentation_rect" : [ 547.0, 347.0, 74.0, 20.0 ],
					"patching_rect" : [ 97.0, 568.0, 150.0, 20.0 ],
					"presentation" : 1,
					"fontsize" : 12.0,
					"id" : "obj-30",
					"numinlets" : 1,
					"numoutlets" : 0
				}

			}
, 			{
				"box" : 				{
					"maxclass" : "dial",
					"outlettype" : [ "float" ],
					"presentation_rect" : [ 547.0, 297.0, 40.0, 40.0 ],
					"patching_rect" : [ 264.0, 564.0, 40.0, 40.0 ],
					"presentation" : 1,
					"id" : "obj-29",
					"numinlets" : 1,
					"numoutlets" : 1
				}

			}
, 			{
				"box" : 				{
					"maxclass" : "comment",
					"text" : "Filter",
					"fontname" : "Arial",
					"presentation_rect" : [ 876.0, 233.0, 215.0, 27.0 ],
					"patching_rect" : [ 763.0, 20.0, 215.0, 27.0 ],
					"presentation" : 1,
					"fontsize" : 18.0,
					"id" : "obj-28",
					"numinlets" : 1,
					"numoutlets" : 0
				}

			}
, 			{
				"box" : 				{
					"maxclass" : "comment",
					"text" : "Envelop\namount",
					"linecount" : 2,
					"presentation_linecount" : 2,
					"fontname" : "Arial",
					"presentation_rect" : [ 1067.0, 440.0, 68.0, 34.0 ],
					"patching_rect" : [ 511.0, 447.0, 73.0, 34.0 ],
					"presentation" : 1,
					"fontsize" : 12.0,
					"id" : "obj-24",
					"numinlets" : 1,
					"numoutlets" : 0
				}

			}
, 			{
				"box" : 				{
					"maxclass" : "dial",
					"outlettype" : [ "float" ],
					"presentation_rect" : [ 1067.0, 393.0, 40.0, 40.0 ],
					"patching_rect" : [ 587.0, 443.0, 40.0, 40.0 ],
					"presentation" : 1,
					"id" : "obj-25",
					"numinlets" : 1,
					"numoutlets" : 1
				}

			}
, 			{
				"box" : 				{
					"maxclass" : "comment",
					"text" : "Resonance",
					"fontname" : "Arial",
					"presentation_rect" : [ 977.0, 440.0, 72.0, 20.0 ],
					"patching_rect" : [ 511.0, 383.0, 73.0, 20.0 ],
					"presentation" : 1,
					"fontsize" : 12.0,
					"id" : "obj-22",
					"numinlets" : 1,
					"numoutlets" : 0
				}

			}
, 			{
				"box" : 				{
					"maxclass" : "dial",
					"outlettype" : [ "float" ],
					"presentation_rect" : [ 977.0, 393.0, 40.0, 40.0 ],
					"patching_rect" : [ 587.0, 370.0, 40.0, 40.0 ],
					"presentation" : 1,
					"id" : "obj-23",
					"numinlets" : 1,
					"numoutlets" : 1
				}

			}
, 			{
				"box" : 				{
					"maxclass" : "comment",
					"text" : "Frequency",
					"fontname" : "Arial",
					"presentation_rect" : [ 887.0, 440.0, 68.0, 20.0 ],
					"patching_rect" : [ 511.0, 323.0, 68.0, 20.0 ],
					"presentation" : 1,
					"fontsize" : 12.0,
					"id" : "obj-21",
					"numinlets" : 1,
					"numoutlets" : 0
				}

			}
, 			{
				"box" : 				{
					"maxclass" : "dial",
					"outlettype" : [ "float" ],
					"presentation_rect" : [ 887.0, 393.0, 40.0, 40.0 ],
					"patching_rect" : [ 587.0, 310.0, 40.0, 40.0 ],
					"presentation" : 1,
					"id" : "obj-17",
					"numinlets" : 1,
					"numoutlets" : 1
				}

			}
, 			{
				"box" : 				{
					"maxclass" : "comment",
					"text" : "Oscillators",
					"fontname" : "Arial",
					"presentation_rect" : [ 511.0, 67.0, 108.0, 27.0 ],
					"patching_rect" : [ 496.0, 20.0, 215.0, 27.0 ],
					"presentation" : 1,
					"fontsize" : 18.0,
					"id" : "obj-16",
					"numinlets" : 1,
					"numoutlets" : 0
				}

			}
, 			{
				"box" : 				{
					"maxclass" : "comment",
					"text" : "Mix",
					"fontname" : "Arial",
					"presentation_rect" : [ 739.0, 347.0, 32.0, 20.0 ],
					"patching_rect" : [ 97.0, 493.0, 150.0, 20.0 ],
					"presentation" : 1,
					"fontsize" : 12.0,
					"id" : "obj-11",
					"numinlets" : 1,
					"numoutlets" : 0
				}

			}
, 			{
				"box" : 				{
					"maxclass" : "dial",
					"outlettype" : [ "float" ],
					"presentation_rect" : [ 736.0, 297.0, 40.0, 40.0 ],
					"patching_rect" : [ 264.0, 493.0, 40.0, 40.0 ],
					"presentation" : 1,
					"id" : "obj-10",
					"numinlets" : 1,
					"numoutlets" : 1
				}

			}
, 			{
				"box" : 				{
					"maxclass" : "comment",
					"text" : "Fine tune",
					"fontname" : "Arial",
					"presentation_rect" : [ 646.0, 212.0, 63.0, 20.0 ],
					"patching_rect" : [ 97.0, 402.0, 150.0, 20.0 ],
					"presentation" : 1,
					"fontsize" : 12.0,
					"id" : "obj-19",
					"numinlets" : 1,
					"numoutlets" : 0
				}

			}
, 			{
				"box" : 				{
					"maxclass" : "dial",
					"outlettype" : [ "float" ],
					"presentation_rect" : [ 646.0, 159.0, 40.0, 40.0 ],
					"patching_rect" : [ 264.0, 402.0, 40.0, 40.0 ],
					"presentation" : 1,
					"id" : "obj-18",
					"numinlets" : 1,
					"numoutlets" : 1
				}

			}
, 			{
				"box" : 				{
					"maxclass" : "comment",
					"text" : "Semitones",
					"fontname" : "Arial",
					"presentation_rect" : [ 646.0, 126.0, 68.0, 20.0 ],
					"patching_rect" : [ 97.0, 321.0, 150.0, 20.0 ],
					"presentation" : 1,
					"fontsize" : 12.0,
					"id" : "obj-9",
					"numinlets" : 1,
					"numoutlets" : 0
				}

			}
, 			{
				"box" : 				{
					"maxclass" : "dial",
					"outlettype" : [ "float" ],
					"presentation_rect" : [ 646.0, 81.0, 40.0, 40.0 ],
					"patching_rect" : [ 264.0, 321.0, 40.0, 40.0 ],
					"size" : 121.0,
					"presentation" : 1,
					"id" : "obj-6",
					"numinlets" : 1,
					"numoutlets" : 1
				}

			}
, 			{
				"box" : 				{
					"maxclass" : "newobj",
					"text" : "spray 66",
					"outlettype" : [ "", "", "", "", "", "", "", "", "", "", "", "", "", "", "", "", "", "", "", "", "", "", "", "", "", "", "", "", "", "", "", "", "", "", "", "", "", "", "", "", "", "", "", "", "", "", "", "", "", "", "", "", "", "", "", "", "", "", "", "", "", "", "", "", "", "" ],
					"fontname" : "Arial",
					"patching_rect" : [ 264.0, 245.0, 976.5, 20.0 ],
					"fontsize" : 12.0,
					"id" : "obj-3",
					"numinlets" : 1,
					"numoutlets" : 66
				}

			}
, 			{
				"box" : 				{
					"maxclass" : "newobj",
					"text" : "midiin",
					"outlettype" : [ "int" ],
					"fontname" : "Arial",
					"patching_rect" : [ 264.0, 166.0, 42.0, 20.0 ],
					"fontsize" : 12.0,
					"id" : "obj-2",
					"numinlets" : 1,
					"numoutlets" : 1
				}

			}
, 			{
				"box" : 				{
					"maxclass" : "newobj",
					"text" : "js nord-lead-midi-parser",
					"outlettype" : [ "", "" ],
					"fontname" : "Arial",
					"patching_rect" : [ 264.0, 197.0, 137.0, 20.0 ],
					"fontsize" : 12.0,
					"id" : "obj-1",
					"numinlets" : 1,
					"numoutlets" : 2
				}

			}
, 			{
				"box" : 				{
					"maxclass" : "panel",
					"presentation_rect" : [ 496.0, 53.0, 347.0, 430.0 ],
					"bgcolor" : [ 0.678431, 0.819608, 0.819608, 1.0 ],
					"patching_rect" : [ 84.0, 293.0, 348.0, 385.0 ],
					"presentation" : 1,
					"id" : "obj-14",
					"numinlets" : 1,
					"numoutlets" : 0
				}

			}
, 			{
				"box" : 				{
					"maxclass" : "panel",
					"presentation_rect" : [ 862.0, 221.0, 450.0, 259.0 ],
					"bgcolor" : [ 0.827451, 0.737255, 0.835294, 1.0 ],
					"patching_rect" : [ 456.0, 293.0, 204.0, 426.0 ],
					"presentation" : 1,
					"id" : "obj-27",
					"numinlets" : 1,
					"numoutlets" : 0
				}

			}
, 			{
				"box" : 				{
					"maxclass" : "panel",
					"presentation_rect" : [ 496.0, 638.0, 347.0, 430.0 ],
					"bgcolor" : [ 0.678431, 0.819608, 0.819608, 1.0 ],
					"patching_rect" : [ 99.0, 308.0, 348.0, 385.0 ],
					"presentation" : 1,
					"id" : "obj-136",
					"numinlets" : 1,
					"numoutlets" : 0
				}

			}
, 			{
				"box" : 				{
					"maxclass" : "panel",
					"presentation_rect" : [ 862.0, 806.0, 514.0, 259.0 ],
					"bgcolor" : [ 0.827451, 0.737255, 0.835294, 1.0 ],
					"patching_rect" : [ 471.0, 308.0, 204.0, 426.0 ],
					"presentation" : 1,
					"id" : "obj-138",
					"numinlets" : 1,
					"numoutlets" : 0
				}

			}
, 			{
				"box" : 				{
					"maxclass" : "comment",
					"text" : "Amplifier",
					"fontname" : "Arial",
					"presentation_rect" : [ 886.0, 660.0, 215.0, 27.0 ],
					"patching_rect" : [ 1016.0, 35.0, 215.0, 27.0 ],
					"presentation" : 1,
					"fontsize" : 18.0,
					"id" : "obj-139",
					"numinlets" : 1,
					"numoutlets" : 0
				}

			}
, 			{
				"box" : 				{
					"maxclass" : "panel",
					"presentation_rect" : [ 862.0, 639.0, 514.0, 149.0 ],
					"bgcolor" : [ 0.67451, 0.819608, 0.572549, 1.0 ],
					"patching_rect" : [ 696.0, 308.0, 200.0, 353.0 ],
					"presentation" : 1,
					"id" : "obj-140",
					"numinlets" : 1,
					"numoutlets" : 0
				}

			}
, 			{
				"box" : 				{
					"maxclass" : "panel",
					"presentation_rect" : [ 75.0, 905.0, 403.0, 131.0 ],
					"bgcolor" : [ 0.917647, 0.937255, 0.670588, 1.0 ],
					"patching_rect" : [ 931.0, 308.0, 196.0, 225.0 ],
					"presentation" : 1,
					"id" : "obj-146",
					"numinlets" : 1,
					"numoutlets" : 0
				}

			}
, 			{
				"box" : 				{
					"maxclass" : "panel",
					"presentation_rect" : [ 75.0, 771.0, 403.0, 131.0 ],
					"bgcolor" : [ 0.545098, 0.85098, 0.592157, 1.0 ],
					"patching_rect" : [ 1411.0, 308.0, 196.0, 225.0 ],
					"presentation" : 1,
					"id" : "obj-144",
					"numinlets" : 1,
					"numoutlets" : 0
				}

			}
, 			{
				"box" : 				{
					"maxclass" : "panel",
					"presentation_rect" : [ 75.0, 638.0, 403.0, 131.0 ],
					"bgcolor" : [ 0.694118, 0.694118, 0.694118, 1.0 ],
					"patching_rect" : [ 1168.0, 308.0, 196.0, 225.0 ],
					"presentation" : 1,
					"id" : "obj-142",
					"numinlets" : 1,
					"numoutlets" : 0
				}

			}
 ],
		"lines" : [ 			{
				"patchline" : 				{
					"source" : [ "obj-3", 49 ],
					"destination" : [ "obj-126", 0 ],
					"hidden" : 0,
					"midpoints" : [ 995.307678, 593.5, 1399.5, 593.5 ]
				}

			}
, 			{
				"patchline" : 				{
					"source" : [ "obj-3", 48 ],
					"destination" : [ "obj-128", 0 ],
					"hidden" : 0,
					"midpoints" : [ 980.576904, 593.5, 1294.5, 593.5 ]
				}

			}
, 			{
				"patchline" : 				{
					"source" : [ "obj-3", 47 ],
					"destination" : [ "obj-130", 0 ],
					"hidden" : 0,
					"midpoints" : [ 965.84613, 279.0, 1140.0, 279.0, 1140.0, 690.0, 1176.0, 690.0, 1176.0, 915.0, 1189.5, 915.0 ]
				}

			}
, 			{
				"patchline" : 				{
					"source" : [ "obj-3", 46 ],
					"destination" : [ "obj-132", 0 ],
					"hidden" : 0,
					"midpoints" : [ 951.115356, 593.5, 1084.5, 593.5 ]
				}

			}
, 			{
				"patchline" : 				{
					"source" : [ "obj-3", 45 ],
					"destination" : [ "obj-134", 0 ],
					"hidden" : 0,
					"midpoints" : [ 936.384644, 279.0, 903.0, 279.0, 903.0, 918.0, 979.5, 918.0 ]
				}

			}
, 			{
				"patchline" : 				{
					"source" : [ "obj-3", 44 ],
					"destination" : [ "obj-116", 0 ],
					"hidden" : 0,
					"midpoints" : [ 921.65387, 563.5, 1399.5, 563.5 ]
				}

			}
, 			{
				"patchline" : 				{
					"source" : [ "obj-3", 43 ],
					"destination" : [ "obj-118", 0 ],
					"hidden" : 0,
					"midpoints" : [ 906.923096, 563.5, 1294.5, 563.5 ]
				}

			}
, 			{
				"patchline" : 				{
					"source" : [ "obj-3", 42 ],
					"destination" : [ "obj-120", 0 ],
					"hidden" : 0,
					"midpoints" : [ 892.192322, 563.5, 1189.5, 563.5 ]
				}

			}
, 			{
				"patchline" : 				{
					"source" : [ "obj-3", 40 ],
					"destination" : [ "obj-124", 0 ],
					"hidden" : 0,
					"midpoints" : [ 862.730774, 279.0, 903.0, 279.0, 903.0, 858.0, 979.5, 858.0 ]
				}

			}
, 			{
				"patchline" : 				{
					"source" : [ "obj-3", 41 ],
					"destination" : [ "obj-122", 0 ],
					"hidden" : 0,
					"midpoints" : [ 877.461548, 563.5, 1084.5, 563.5 ]
				}

			}
, 			{
				"patchline" : 				{
					"source" : [ "obj-3", 39 ],
					"destination" : [ "obj-106", 0 ],
					"hidden" : 0,
					"midpoints" : [ 848.0, 533.5, 1399.5, 533.5 ]
				}

			}
, 			{
				"patchline" : 				{
					"source" : [ "obj-3", 38 ],
					"destination" : [ "obj-108", 0 ],
					"hidden" : 0,
					"midpoints" : [ 833.269226, 533.5, 1294.5, 533.5 ]
				}

			}
, 			{
				"patchline" : 				{
					"source" : [ "obj-3", 37 ],
					"destination" : [ "obj-110", 0 ],
					"hidden" : 0,
					"midpoints" : [ 818.538452, 279.0, 1140.0, 279.0, 1140.0, 690.0, 1176.0, 690.0, 1176.0, 795.0, 1189.5, 795.0 ]
				}

			}
, 			{
				"patchline" : 				{
					"source" : [ "obj-3", 36 ],
					"destination" : [ "obj-112", 0 ],
					"hidden" : 0,
					"midpoints" : [ 803.807678, 279.0, 903.0, 279.0, 903.0, 669.0, 1062.0, 669.0, 1062.0, 702.0, 1071.0, 702.0, 1071.0, 795.0, 1084.5, 795.0 ]
				}

			}
, 			{
				"patchline" : 				{
					"source" : [ "obj-3", 35 ],
					"destination" : [ "obj-114", 0 ],
					"hidden" : 0,
					"midpoints" : [ 789.076904, 279.0, 903.0, 279.0, 903.0, 798.0, 979.5, 798.0 ]
				}

			}
, 			{
				"patchline" : 				{
					"source" : [ "obj-3", 34 ],
					"destination" : [ "obj-84", 0 ],
					"hidden" : 0,
					"midpoints" : [ 774.34613, 503.5, 1399.5, 503.5 ]
				}

			}
, 			{
				"patchline" : 				{
					"source" : [ "obj-3", 33 ],
					"destination" : [ "obj-86", 0 ],
					"hidden" : 0,
					"midpoints" : [ 759.615356, 279.0, 1140.0, 279.0, 1140.0, 669.0, 1272.0, 669.0, 1272.0, 702.0, 1281.0, 702.0, 1281.0, 735.0, 1294.5, 735.0 ]
				}

			}
, 			{
				"patchline" : 				{
					"source" : [ "obj-3", 32 ],
					"destination" : [ "obj-88", 0 ],
					"hidden" : 0,
					"midpoints" : [ 744.884644, 279.0, 1140.0, 279.0, 1140.0, 690.0, 1176.0, 690.0, 1176.0, 735.0, 1189.5, 735.0 ]
				}

			}
, 			{
				"patchline" : 				{
					"source" : [ "obj-3", 31 ],
					"destination" : [ "obj-102", 0 ],
					"hidden" : 0,
					"midpoints" : [ 730.15387, 279.0, 903.0, 279.0, 903.0, 669.0, 1062.0, 669.0, 1062.0, 702.0, 1071.0, 702.0, 1071.0, 738.0, 1084.5, 738.0 ]
				}

			}
, 			{
				"patchline" : 				{
					"source" : [ "obj-3", 30 ],
					"destination" : [ "obj-104", 0 ],
					"hidden" : 0,
					"midpoints" : [ 715.423096, 279.0, 903.0, 279.0, 903.0, 738.0, 979.5, 738.0 ]
				}

			}
, 			{
				"patchline" : 				{
					"source" : [ "obj-3", 29 ],
					"destination" : [ "obj-80", 0 ],
					"hidden" : 0,
					"midpoints" : [ 700.692322, 279.0, 1383.0, 279.0, 1383.0, 669.0, 1399.5, 669.0 ]
				}

			}
, 			{
				"patchline" : 				{
					"source" : [ "obj-3", 28 ],
					"destination" : [ "obj-78", 0 ],
					"hidden" : 0,
					"midpoints" : [ 685.961548, 279.0, 1140.0, 279.0, 1140.0, 669.0, 1294.5, 669.0 ]
				}

			}
, 			{
				"patchline" : 				{
					"source" : [ "obj-3", 27 ],
					"destination" : [ "obj-76", 0 ],
					"hidden" : 0,
					"midpoints" : [ 671.230774, 279.0, 1140.0, 279.0, 1140.0, 669.0, 1189.5, 669.0 ]
				}

			}
, 			{
				"patchline" : 				{
					"source" : [ "obj-3", 26 ],
					"destination" : [ "obj-74", 0 ],
					"hidden" : 0,
					"midpoints" : [ 656.5, 279.0, 903.0, 279.0, 903.0, 669.0, 1084.5, 669.0 ]
				}

			}
, 			{
				"patchline" : 				{
					"source" : [ "obj-3", 25 ],
					"destination" : [ "obj-62", 0 ],
					"hidden" : 0,
					"midpoints" : [ 641.769226, 279.0, 903.0, 279.0, 903.0, 669.0, 979.5, 669.0 ]
				}

			}
, 			{
				"patchline" : 				{
					"source" : [ "obj-8", 0 ],
					"destination" : [ "obj-12", 0 ],
					"hidden" : 0,
					"midpoints" : [  ]
				}

			}
, 			{
				"patchline" : 				{
					"source" : [ "obj-7", 0 ],
					"destination" : [ "obj-8", 1 ],
					"hidden" : 0,
					"midpoints" : [ 270.5, 84.5, 303.5, 84.5 ]
				}

			}
, 			{
				"patchline" : 				{
					"source" : [ "obj-59", 0 ],
					"destination" : [ "obj-1", 0 ],
					"hidden" : 0,
					"midpoints" : [ 123.5, 192.0, 273.5, 192.0 ]
				}

			}
, 			{
				"patchline" : 				{
					"source" : [ "obj-5", 0 ],
					"destination" : [ "obj-8", 1 ],
					"hidden" : 0,
					"midpoints" : [ 397.5, 84.5, 303.5, 84.5 ]
				}

			}
, 			{
				"patchline" : 				{
					"source" : [ "obj-31", 0 ],
					"destination" : [ "obj-1", 0 ],
					"hidden" : 0,
					"midpoints" : [ 591.5, 183.0, 306.0, 183.0, 306.0, 192.0, 273.5, 192.0 ]
				}

			}
, 			{
				"patchline" : 				{
					"source" : [ "obj-3", 23 ],
					"destination" : [ "obj-99", 0 ],
					"hidden" : 0,
					"midpoints" : [ 612.307678, 279.0, 1536.5, 279.0 ]
				}

			}
, 			{
				"patchline" : 				{
					"source" : [ "obj-3", 24 ],
					"destination" : [ "obj-97", 0 ],
					"hidden" : 0,
					"midpoints" : [ 627.038452, 279.0, 1437.0, 279.0, 1437.0, 366.0, 1536.5, 366.0 ]
				}

			}
, 			{
				"patchline" : 				{
					"source" : [ "obj-3", 21 ],
					"destination" : [ "obj-93", 0 ],
					"hidden" : 0,
					"midpoints" : [ 582.84613, 279.0, 1293.5, 279.0 ]
				}

			}
, 			{
				"patchline" : 				{
					"source" : [ "obj-3", 22 ],
					"destination" : [ "obj-91", 0 ],
					"hidden" : 0,
					"midpoints" : [ 597.576904, 279.0, 1194.0, 279.0, 1194.0, 366.0, 1293.5, 366.0 ]
				}

			}
, 			{
				"patchline" : 				{
					"source" : [ "obj-3", 18 ],
					"destination" : [ "obj-71", 0 ],
					"hidden" : 0,
					"midpoints" : [ 538.65387, 279.0, 1056.5, 279.0 ]
				}

			}
, 			{
				"patchline" : 				{
					"source" : [ "obj-3", 19 ],
					"destination" : [ "obj-69", 0 ],
					"hidden" : 0,
					"midpoints" : [ 553.384644, 279.0, 957.0, 279.0, 957.0, 366.0, 1056.5, 366.0 ]
				}

			}
, 			{
				"patchline" : 				{
					"source" : [ "obj-3", 20 ],
					"destination" : [ "obj-67", 0 ],
					"hidden" : 0,
					"midpoints" : [ 568.115356, 279.0, 957.0, 279.0, 957.0, 420.0, 1056.5, 420.0 ]
				}

			}
, 			{
				"patchline" : 				{
					"source" : [ "obj-3", 0 ],
					"destination" : [ "obj-6", 0 ],
					"hidden" : 0,
					"midpoints" : [  ]
				}

			}
, 			{
				"patchline" : 				{
					"source" : [ "obj-3", 17 ],
					"destination" : [ "obj-58", 0 ],
					"hidden" : 0,
					"midpoints" : [ 523.923096, 279.0, 723.0, 279.0, 723.0, 531.0, 821.5, 531.0 ]
				}

			}
, 			{
				"patchline" : 				{
					"source" : [ "obj-3", 16 ],
					"destination" : [ "obj-54", 0 ],
					"hidden" : 0,
					"midpoints" : [ 509.192322, 279.0, 69.0, 279.0, 69.0, 732.0, 273.5, 732.0 ]
				}

			}
, 			{
				"patchline" : 				{
					"source" : [ "obj-3", 15 ],
					"destination" : [ "obj-51", 0 ],
					"hidden" : 0,
					"midpoints" : [ 494.461548, 279.0, 723.0, 279.0, 723.0, 477.0, 821.5, 477.0 ]
				}

			}
, 			{
				"patchline" : 				{
					"source" : [ "obj-3", 14 ],
					"destination" : [ "obj-49", 0 ],
					"hidden" : 0,
					"midpoints" : [ 479.730774, 279.0, 723.0, 279.0, 723.0, 420.0, 821.5, 420.0 ]
				}

			}
, 			{
				"patchline" : 				{
					"source" : [ "obj-3", 13 ],
					"destination" : [ "obj-47", 0 ],
					"hidden" : 0,
					"midpoints" : [ 465.0, 279.0, 723.0, 279.0, 723.0, 366.0, 821.5, 366.0 ]
				}

			}
, 			{
				"patchline" : 				{
					"source" : [ "obj-3", 12 ],
					"destination" : [ "obj-44", 0 ],
					"hidden" : 0,
					"midpoints" : [ 450.269226, 279.0, 821.5, 279.0 ]
				}

			}
, 			{
				"patchline" : 				{
					"source" : [ "obj-3", 11 ],
					"destination" : [ "obj-42", 0 ],
					"hidden" : 0,
					"midpoints" : [ 435.538452, 279.0, 498.0, 279.0, 498.0, 651.0, 591.0, 651.0, 591.0, 657.0, 596.5, 657.0 ]
				}

			}
, 			{
				"patchline" : 				{
					"source" : [ "obj-3", 10 ],
					"destination" : [ "obj-40", 0 ],
					"hidden" : 0,
					"midpoints" : [ 420.807678, 279.0, 498.0, 279.0, 498.0, 600.0, 591.0, 600.0, 591.0, 606.0, 596.5, 606.0 ]
				}

			}
, 			{
				"patchline" : 				{
					"source" : [ "obj-3", 9 ],
					"destination" : [ "obj-38", 0 ],
					"hidden" : 0,
					"midpoints" : [ 406.076935, 279.0, 498.0, 279.0, 498.0, 546.0, 582.0, 546.0, 582.0, 549.0, 596.5, 549.0 ]
				}

			}
, 			{
				"patchline" : 				{
					"source" : [ "obj-3", 8 ],
					"destination" : [ "obj-36", 0 ],
					"hidden" : 0,
					"midpoints" : [ 391.346161, 279.0, 498.0, 279.0, 498.0, 498.0, 591.0, 498.0, 591.0, 504.0, 596.5, 504.0 ]
				}

			}
, 			{
				"patchline" : 				{
					"source" : [ "obj-3", 7 ],
					"destination" : [ "obj-34", 0 ],
					"hidden" : 0,
					"midpoints" : [ 376.615387, 613.0, 273.5, 613.0 ]
				}

			}
, 			{
				"patchline" : 				{
					"source" : [ "obj-3", 6 ],
					"destination" : [ "obj-29", 0 ],
					"hidden" : 0,
					"midpoints" : [ 361.884613, 542.0, 273.5, 542.0 ]
				}

			}
, 			{
				"patchline" : 				{
					"source" : [ "obj-3", 5 ],
					"destination" : [ "obj-25", 0 ],
					"hidden" : 0,
					"midpoints" : [ 347.153839, 279.0, 498.0, 279.0, 498.0, 429.0, 596.5, 429.0 ]
				}

			}
, 			{
				"patchline" : 				{
					"source" : [ "obj-3", 4 ],
					"destination" : [ "obj-23", 0 ],
					"hidden" : 0,
					"midpoints" : [ 332.423065, 279.0, 498.0, 279.0, 498.0, 366.0, 596.5, 366.0 ]
				}

			}
, 			{
				"patchline" : 				{
					"source" : [ "obj-3", 1 ],
					"destination" : [ "obj-18", 0 ],
					"hidden" : 0,
					"midpoints" : [ 288.230774, 303.0, 315.0, 303.0, 315.0, 366.0, 273.5, 366.0 ]
				}

			}
, 			{
				"patchline" : 				{
					"source" : [ "obj-3", 3 ],
					"destination" : [ "obj-17", 0 ],
					"hidden" : 0,
					"midpoints" : [ 317.692322, 279.0, 596.5, 279.0 ]
				}

			}
, 			{
				"patchline" : 				{
					"source" : [ "obj-3", 2 ],
					"destination" : [ "obj-10", 0 ],
					"hidden" : 0,
					"midpoints" : [ 302.961548, 298.0, 321.0, 298.0, 321.0, 471.0, 273.5, 471.0 ]
				}

			}
, 			{
				"patchline" : 				{
					"source" : [ "obj-20", 0 ],
					"destination" : [ "obj-59", 0 ],
					"hidden" : 0,
					"midpoints" : [  ]
				}

			}
, 			{
				"patchline" : 				{
					"source" : [ "obj-2", 0 ],
					"destination" : [ "obj-1", 0 ],
					"hidden" : 0,
					"midpoints" : [  ]
				}

			}
, 			{
				"patchline" : 				{
					"source" : [ "obj-12", 1 ],
					"destination" : [ "obj-2", 0 ],
					"hidden" : 0,
					"midpoints" : [ 311.0, 158.0, 273.5, 158.0 ]
				}

			}
, 			{
				"patchline" : 				{
					"source" : [ "obj-1", 1 ],
					"destination" : [ "obj-32", 0 ],
					"hidden" : 0,
					"midpoints" : [ 391.5, 217.5, 452.5, 217.5 ]
				}

			}
, 			{
				"patchline" : 				{
					"source" : [ "obj-1", 0 ],
					"destination" : [ "obj-3", 0 ],
					"hidden" : 0,
					"midpoints" : [  ]
				}

			}
 ]
	}

}
